<svg width="12" height="12" viewBox="0 0 12 12" fill="none" xmlns="http://www.w3.org/2000/svg">
<path d="M5.15364 3.60993C5.47468 2.80959 5.63519 2.40942 5.89598 2.35396C5.96456 2.33937 6.03543 2.33937 6.104 2.35396C6.36479 2.40942 6.52531 2.80959 6.84634 3.60993C7.02891 4.06507 7.1202 4.29264 7.291 4.44742C7.33891 4.49084 7.39092 4.52951 7.44629 4.56288C7.64371 4.68187 7.89016 4.70394 8.38305 4.74808C9.21743 4.82281 9.63462 4.86017 9.76202 5.09804C9.78841 5.14731 9.80635 5.20065 9.81509 5.25585C9.85733 5.52236 9.55063 5.80139 8.93724 6.35945L8.7669 6.51442C8.48013 6.77532 8.33674 6.90577 8.25381 7.06858C8.20406 7.16623 8.1707 7.27141 8.15507 7.37989C8.12901 7.56073 8.171 7.74998 8.25498 8.12847L8.28498 8.2637C8.43558 8.94247 8.51088 9.28185 8.41688 9.44867C8.33245 9.59852 8.17693 9.69445 8.00513 9.70265C7.81387 9.71178 7.54437 9.49219 7.00538 9.05299C6.65028 8.76363 6.47273 8.61895 6.27562 8.56243C6.0955 8.51079 5.90449 8.51079 5.72436 8.56243C5.52726 8.61895 5.3497 8.76363 4.9946 9.05299C4.45561 9.49219 4.18612 9.71178 3.99486 9.70265C3.82306 9.69445 3.66753 9.59852 3.5831 9.44867C3.48911 9.28185 3.5644 8.94247 3.715 8.2637L3.74501 8.12847C3.82898 7.74998 3.87097 7.56073 3.84491 7.37989C3.82928 7.27141 3.79593 7.16623 3.74618 7.06858C3.66324 6.90577 3.51985 6.77532 3.23308 6.51442L3.06274 6.35945C2.44935 5.80139 2.14265 5.52236 2.18489 5.25585C2.19364 5.20065 2.21158 5.14731 2.23796 5.09804C2.36536 4.86017 2.78255 4.82281 3.61693 4.74808C4.10983 4.70394 4.35627 4.68187 4.55369 4.56288C4.60907 4.52951 4.66107 4.49084 4.70898 4.44742C4.87979 4.29264 4.97107 4.06507 5.15364 3.60993Z" fill="#F3B840" stroke="#F3B840"/>
</svg>
