<svg width="15" height="17" viewBox="0 0 15 17" fill="none" xmlns="http://www.w3.org/2000/svg">
<path d="M4.16376 7.15833C3.14864 7.15833 2.30519 6.82244 1.63341 6.15067C0.961638 5.4789 0.625751 4.65784 0.625751 3.6875C0.625751 2.73209 0.961638 1.91849 1.63341 1.24672C2.32011 0.560017 3.16356 0.216666 4.16376 0.216666C5.17889 0.216666 6.02234 0.552553 6.69411 1.22433C7.36588 1.8961 7.70177 2.71716 7.70177 3.6875C7.70177 4.65784 7.36588 5.4789 6.69411 6.15067C6.03726 6.82244 5.19381 7.15833 4.16376 7.15833ZM2.37236 3.6875C2.37236 4.20999 2.53657 4.65038 2.865 5.00865C3.20835 5.35201 3.64127 5.52368 4.16376 5.52368C4.68625 5.52368 5.11171 5.34454 5.44013 4.98626C5.78348 4.62798 5.95516 4.19506 5.95516 3.6875C5.95516 3.17994 5.78348 2.75448 5.44013 2.41113C5.11171 2.05285 4.68625 1.87371 4.16376 1.87371C3.64127 1.87371 3.20835 2.05285 2.865 2.41113C2.53657 2.75448 2.37236 3.17994 2.37236 3.6875ZM2.75304 14.5926L1.6782 13.9656L12.0907 2.32156L13.1879 2.92616L2.75304 14.5926ZM14.4643 12.9804C14.4643 13.9507 14.1284 14.7718 13.4566 15.4435C12.7849 16.1153 11.9414 16.4512 10.9263 16.4512C9.91116 16.4512 9.06771 16.1153 8.39594 15.4435C7.72416 14.7718 7.38828 13.9507 7.38828 12.9804C7.38828 12.01 7.72416 11.189 8.39594 10.5172C9.06771 9.84543 9.91116 9.50954 10.9263 9.50954C11.9414 9.50954 12.7849 9.84543 13.4566 10.5172C14.1284 11.189 14.4643 12.01 14.4643 12.9804ZM9.62752 14.2791C9.97087 14.6225 10.4038 14.7942 10.9263 14.7942C11.4338 14.7942 11.8593 14.6225 12.2027 14.2791C12.546 13.9209 12.7177 13.4879 12.7177 12.9804C12.7177 12.4728 12.546 12.0474 12.2027 11.704C11.8742 11.3457 11.4488 11.1666 10.9263 11.1666C10.4038 11.1666 9.97087 11.3457 9.62752 11.704C9.2991 12.0474 9.13489 12.4728 9.13489 12.9804C9.13489 13.4879 9.2991 13.9209 9.62752 14.2791Z" fill="#F5BA41"/>
</svg>
