<svg width="34" height="36" viewBox="0 0 34 36" fill="none" xmlns="http://www.w3.org/2000/svg">
<path fill-rule="evenodd" clip-rule="evenodd" d="M26.7747 14.1967C26.7747 21.2247 21.0774 26.922 14.0494 26.922C7.0214 26.922 1.32409 21.2247 1.32409 14.1967C1.32409 7.16874 7.0214 1.47143 14.0494 1.47143C21.0774 1.47143 26.7747 7.16874 26.7747 14.1967ZM22.4921 24.7272C20.1804 26.583 17.2445 27.6933 14.0494 27.6933C6.59546 27.6933 0.552856 21.6507 0.552856 14.1967C0.552856 6.7428 6.59546 0.700195 14.0494 0.700195C21.5033 0.700195 27.5459 6.7428 27.5459 14.1967C27.5459 18.1774 25.8226 21.7555 23.0814 24.2258L33.6028 34.7472C33.7534 34.8978 33.7534 35.142 33.6028 35.2926C33.4522 35.4431 33.2081 35.4431 33.0575 35.2926L22.4921 24.7272ZM13.2782 14.9679V19.9808H14.0494V14.9679H19.0624L19.0624 14.1967H14.0494V9.18359H13.2782V14.1967H8.26517V14.9679H13.2782Z" fill="white"/>
</svg>
